<svg width="55" height="54" viewBox="0 0 55 54" fill="none" xmlns="http://www.w3.org/2000/svg">
<path d="M22.9927 53.6176C17.159 52.5035 12.5053 50.0747 8.46458 46.0353C-0.307467 37.2633 -1.97851 23.994 4.32809 13.2084C7.90433 7.09288 13.8798 2.68766 21.1917 0.774459C24.6262 -0.123713 30.3742 -0.123713 33.8083 0.774459C39.7938 2.34004 44.734 5.44292 48.3153 9.88105C51.041 13.2645 52.5935 16.364 53.7254 20.6916C54.6236 24.1261 54.6236 29.8741 53.7254 33.3082C51.0773 43.4349 43.9071 50.6118 33.8446 53.2122C31.048 53.9357 25.7053 54.1353 22.9927 53.6176ZM32.3545 43.0906C34.3107 42.2928 35.7725 41.0306 37.0909 39.0022C37.9908 37.6164 38.8396 35.2416 38.8396 34.1064C38.8396 33.5115 38.7472 33.4803 36.9445 33.4803C34.8368 33.4803 34.8465 33.4719 34.2517 35.8318C33.8627 37.3759 32.4785 39.1098 31.01 39.8924C29.9604 40.4526 29.4988 40.5286 27.6152 40.4526C25.7927 40.3801 25.2552 40.2467 24.3473 39.6468C23.034 38.7769 21.6942 36.8258 21.139 34.9784C20.1336 31.6249 20.0168 23.9156 20.9116 19.9871C21.8329 15.948 24.4532 13.5075 27.8742 13.5024C31.1868 13.4974 33.5644 15.5987 34.5204 19.3741L34.8107 20.5212H38.9142L38.7413 19.2572C38.6455 18.562 38.1861 17.1643 37.7195 16.1543C35.165 10.6105 28.5403 8.48802 22.7214 11.3487C20.0303 12.6722 18.0019 15.3979 16.7903 19.3201C16.0604 21.6864 16.0604 32.3159 16.7903 34.6822C17.896 38.2665 19.913 41.1799 22.227 42.5346C25.0333 44.179 29.1335 44.4052 32.3554 43.0914L32.3545 43.0906Z" fill="#FFEEEE"/>
</svg>
