<svg width="20" height="24" viewBox="0 0 20 24" fill="none" xmlns="http://www.w3.org/2000/svg">
<path fill-rule="evenodd" clip-rule="evenodd" d="M0 1.90092C0 1.39677 0.175595 0.91326 0.488155 0.556768C0.800716 0.200275 1.22464 0 1.66667 0H18.3333C18.7754 0 19.1993 0.200275 19.5118 0.556768C19.8244 0.91326 20 1.39677 20 1.90092V4.54447C19.9999 5.21663 19.7657 5.8612 19.3489 6.33641L13.3333 13.1975V22.6058C13.3334 22.8434 13.2801 23.0771 13.1787 23.2847C13.0772 23.4923 12.9309 23.6668 12.7537 23.7918C12.5765 23.9167 12.3742 23.9879 12.166 23.9986C11.9579 24.0093 11.7508 23.9591 11.5644 23.8528L7.43444 21.4982C7.20374 21.3666 7.00972 21.1644 6.87411 20.9141C6.73851 20.6639 6.66668 20.3755 6.66667 20.0814V13.1975L0.651111 6.33641C0.234335 5.8612 0.000125861 5.21663 0 4.54447V1.90092ZM2.22222 2.53456V4.54447L8.4 11.5906C8.55494 11.7671 8.67787 11.9767 8.76175 12.2074C8.84564 12.4381 8.88884 12.6854 8.88889 12.9352V19.4933L11.1111 20.7606V12.9352C11.1111 12.4308 11.2867 11.9467 11.6 11.5918L17.7778 4.54321V2.53456H2.22222Z" fill="white"/>
</svg>
