<svg width="113" height="43" viewBox="0 0 113 43" fill="none" xmlns="http://www.w3.org/2000/svg">
<path d="M48.1855 33L44.6815 26.64H43.6975V33H39.5935V16.152H46.4815C47.8095 16.152 48.9375 16.384 49.8655 16.848C50.8095 17.312 51.5135 17.952 51.9775 18.768C52.4415 19.568 52.6735 20.464 52.6735 21.456C52.6735 22.576 52.3535 23.576 51.7135 24.456C51.0895 25.336 50.1615 25.96 48.9295 26.328L52.8175 33H48.1855ZM43.6975 23.736H46.2415C46.9935 23.736 47.5535 23.552 47.9215 23.184C48.3055 22.816 48.4975 22.296 48.4975 21.624C48.4975 20.984 48.3055 20.48 47.9215 20.112C47.5535 19.744 46.9935 19.56 46.2415 19.56H43.6975V23.736ZM67.8737 26.088C67.8737 26.472 67.8497 26.872 67.8017 27.288H58.5137C58.5777 28.12 58.8417 28.76 59.3057 29.208C59.7857 29.64 60.3697 29.856 61.0577 29.856C62.0817 29.856 62.7937 29.424 63.1937 28.56H67.5617C67.3377 29.44 66.9297 30.232 66.3377 30.936C65.7617 31.64 65.0337 32.192 64.1537 32.592C63.2737 32.992 62.2897 33.192 61.2017 33.192C59.8897 33.192 58.7217 32.912 57.6977 32.352C56.6737 31.792 55.8737 30.992 55.2977 29.952C54.7217 28.912 54.4337 27.696 54.4337 26.304C54.4337 24.912 54.7137 23.696 55.2737 22.656C55.8497 21.616 56.6497 20.816 57.6737 20.256C58.6977 19.696 59.8737 19.416 61.2017 19.416C62.4977 19.416 63.6497 19.688 64.6577 20.232C65.6657 20.776 66.4497 21.552 67.0097 22.56C67.5857 23.568 67.8737 24.744 67.8737 26.088ZM63.6737 25.008C63.6737 24.304 63.4337 23.744 62.9537 23.328C62.4737 22.912 61.8737 22.704 61.1537 22.704C60.4657 22.704 59.8817 22.904 59.4017 23.304C58.9377 23.704 58.6497 24.272 58.5377 25.008H63.6737ZM83.2628 19.608V33H79.1588V31.176C78.7428 31.768 78.1748 32.248 77.4548 32.616C76.7508 32.968 75.9668 33.144 75.1028 33.144C74.0788 33.144 73.1748 32.92 72.3908 32.472C71.6068 32.008 70.9988 31.344 70.5668 30.48C70.1348 29.616 69.9188 28.6 69.9188 27.432V19.608H73.9988V26.88C73.9988 27.776 74.2308 28.472 74.6948 28.968C75.1588 29.464 75.7828 29.712 76.5668 29.712C77.3668 29.712 77.9988 29.464 78.4628 28.968C78.9268 28.472 79.1588 27.776 79.1588 26.88V19.608H83.2628ZM91.6587 33.192C90.4907 33.192 89.4507 32.992 88.5387 32.592C87.6267 32.192 86.9067 31.648 86.3787 30.96C85.8507 30.256 85.5547 29.472 85.4907 28.608H89.5467C89.5947 29.072 89.8107 29.448 90.1947 29.736C90.5787 30.024 91.0507 30.168 91.6107 30.168C92.1227 30.168 92.5147 30.072 92.7867 29.88C93.0747 29.672 93.2187 29.408 93.2187 29.088C93.2187 28.704 93.0187 28.424 92.6187 28.248C92.2187 28.056 91.5707 27.848 90.6747 27.624C89.7147 27.4 88.9147 27.168 88.2747 26.928C87.6347 26.672 87.0827 26.28 86.6187 25.752C86.1547 25.208 85.9227 24.48 85.9227 23.568C85.9227 22.8 86.1307 22.104 86.5467 21.48C86.9787 20.84 87.6027 20.336 88.4187 19.968C89.2507 19.6 90.2347 19.416 91.3707 19.416C93.0507 19.416 94.3707 19.832 95.3307 20.664C96.3067 21.496 96.8667 22.6 97.0107 23.976H93.2187C93.1547 23.512 92.9467 23.144 92.5947 22.872C92.2587 22.6 91.8107 22.464 91.2507 22.464C90.7707 22.464 90.4027 22.56 90.1467 22.752C89.8907 22.928 89.7627 23.176 89.7627 23.496C89.7627 23.88 89.9627 24.168 90.3627 24.36C90.7787 24.552 91.4187 24.744 92.2827 24.936C93.2747 25.192 94.0827 25.448 94.7067 25.704C95.3307 25.944 95.8747 26.344 96.3387 26.904C96.8187 27.448 97.0667 28.184 97.0827 29.112C97.0827 29.896 96.8587 30.6 96.4107 31.224C95.9787 31.832 95.3467 32.312 94.5147 32.664C93.6987 33.016 92.7467 33.192 91.6587 33.192ZM112.217 26.088C112.217 26.472 112.193 26.872 112.145 27.288H102.857C102.921 28.12 103.185 28.76 103.649 29.208C104.129 29.64 104.713 29.856 105.401 29.856C106.425 29.856 107.137 29.424 107.537 28.56H111.905C111.681 29.44 111.273 30.232 110.681 30.936C110.105 31.64 109.377 32.192 108.497 32.592C107.617 32.992 106.633 33.192 105.545 33.192C104.233 33.192 103.065 32.912 102.041 32.352C101.017 31.792 100.217 30.992 99.6415 29.952C99.0655 28.912 98.7775 27.696 98.7775 26.304C98.7775 24.912 99.0575 23.696 99.6175 22.656C100.193 21.616 100.993 20.816 102.017 20.256C103.041 19.696 104.217 19.416 105.545 19.416C106.841 19.416 107.993 19.688 109.001 20.232C110.009 20.776 110.793 21.552 111.353 22.56C111.929 23.568 112.217 24.744 112.217 26.088ZM108.017 25.008C108.017 24.304 107.777 23.744 107.297 23.328C106.817 22.912 106.217 22.704 105.497 22.704C104.809 22.704 104.225 22.904 103.745 23.304C103.281 23.704 102.993 24.272 102.881 25.008H108.017Z" fill="#156064"/>
<path d="M21.1337 33C20.3915 33 19.6438 32.9158 18.8908 32.7474C18.1377 32.5789 17.3671 32.3366 16.579 32.0205C16.8489 29.2959 17.6361 26.7515 18.9407 24.3872C20.2452 22.0229 21.9209 19.9401 23.9677 18.1387C21.4936 19.3997 19.3514 21.066 17.5412 23.1375C15.731 25.2091 14.4656 27.5734 13.745 30.2304C13.655 30.1628 13.5709 30.0899 13.4926 30.0115L13.2389 29.7575C12.1818 28.6992 11.3779 27.5171 10.8273 26.2111C10.2767 24.9051 10.0009 23.5428 10 22.1243C10 20.5931 10.3036 19.1295 10.9109 17.7334C11.5182 16.3374 12.3617 15.0989 13.4413 14.0181C15.2632 12.1942 17.6249 11.0067 20.5264 10.4555C23.4279 9.90424 27.499 9.85336 32.7397 10.3028C33.1446 15.6844 33.0771 19.7883 32.5373 22.6147C31.9975 25.441 30.8279 27.7544 29.0285 29.5549C27.9264 30.6582 26.6947 31.5085 25.3335 32.1056C23.9722 32.7028 22.5723 33.0009 21.1337 33Z" fill="#156064"/>
</svg>
