<svg width="127" height="126" viewBox="0 0 127 126" fill="none" xmlns="http://www.w3.org/2000/svg">
<path d="M61.4688 125.75C57.4125 125.75 53.3268 125.29 49.2115 124.371C45.0963 123.452 40.8851 122.129 36.5781 120.403C38.0531 105.53 42.3552 91.6407 49.4844 78.7344C56.6135 65.8282 65.7708 54.4584 76.9563 44.6251C63.4354 51.5084 51.7288 60.6042 41.8365 71.9126C31.9442 83.2209 25.0289 96.1271 21.0906 110.631C20.599 110.263 20.1392 109.864 19.7115 109.437L18.325 108.05C12.5479 102.273 8.15487 95.8198 5.14587 88.6907C2.13687 81.5615 0.629917 74.1251 0.625 66.3813C0.625 58.023 2.28437 50.0334 5.60312 42.4126C8.92188 34.7917 13.5313 28.0313 19.4313 22.1313C29.3875 12.1751 42.2938 5.69243 58.15 2.68343C74.0062 -0.32557 96.2542 -0.603365 124.894 1.85005C127.106 31.2271 126.738 53.6299 123.788 69.0584C120.838 84.4869 114.446 97.1154 104.613 106.944C98.5896 112.967 91.8587 117.608 84.4198 120.868C76.9808 124.128 69.3305 125.755 61.4688 125.75Z" fill="white"/>
</svg>
