<svg width="31" height="73" viewBox="0 0 31 73" fill="none" xmlns="http://www.w3.org/2000/svg">
<path d="M15.5091 0.17749C14.139 0.177842 12.7689 0.18812 11.399 0.208324C9.64149 0.236074 8.69799 1.04082 8.63016 2.35432C8.54383 3.96999 8.61166 5.58566 8.61166 7.32774H22.2801C22.2801 5.53324 22.3572 3.82199 22.2492 2.11382C22.1752 0.90824 21.1639 0.23299 19.613 0.211407C18.244 0.188796 16.876 0.17749 15.5091 0.17749ZM10.3106 8.56415C10.9889 10.2384 9.84191 11.0863 8.45441 11.9003C7.56375 12.4246 6.72808 13.0372 5.95999 13.7287C1.35041 17.9375 -0.881921 22.655 0.863245 28.2081C1.17466 29.2009 1.77591 29.6079 3.23741 29.5925C10.7607 29.5185 18.2841 29.5555 25.8074 29.5555C29.8373 29.5555 30.195 29.3088 30.6667 26.1731C30.7023 25.8795 30.7167 25.5838 30.7099 25.2881C30.6443 22.6748 29.9204 20.1203 28.6054 17.8609C27.2903 15.6016 25.4265 13.7106 23.1866 12.3628C21.7343 11.3453 19.6901 10.5837 20.4424 8.56415H10.3106ZM10.9581 13.1583C11.0835 13.1527 11.2091 13.1548 11.3342 13.1645C9.43103 15.0425 7.72051 17.1063 6.22824 19.325C5.2805 21.5852 4.60563 23.9504 4.21791 26.3704C2.21375 21.8996 7.07308 13.3495 10.9581 13.1583ZM2.05958 30.5915V55.3136H28.9647V30.5915H2.05958ZM5.40191 33.1753L6.04633 33.1876C6.1847 33.6163 6.27568 34.0588 6.31766 34.5073C6.33616 40.0203 6.32691 45.5364 6.32383 51.0494C6.35616 51.3436 6.33528 51.6413 6.26216 51.9281C6.19124 52.1193 5.90449 52.2581 5.71333 52.4215C5.50674 52.2735 5.17683 52.1501 5.11824 51.9713C5.04529 51.6332 5.0245 51.2859 5.05658 50.9415C5.05658 45.5241 5.04733 40.1097 5.06891 34.6923C5.12639 34.1764 5.23801 33.6679 5.40191 33.1753ZM28.1477 56.4637C23.9482 56.5408 19.7394 56.4946 15.5368 56.4946H3.88183C0.977329 56.4946 0.191079 56.9725 0.107829 59.2634C-0.00389949 62.5123 -0.00389949 65.764 0.107829 69.0129C0.166412 70.7118 1.50149 71.9328 3.58891 72.309C5.55299 72.6605 7.76991 73.1723 9.23758 71.3531C9.87274 70.57 10.6066 70.6224 11.3959 71.2822C12.7341 72.4107 16.8534 73.3049 18.0559 72.3182C20.0601 70.6748 21.0221 71.1034 23.1958 72.2843C23.9103 72.6245 24.6893 72.8076 25.4805 72.8215C26.2717 72.8354 27.0567 72.6796 27.7827 72.3647C28.5086 72.0498 29.1587 71.583 29.6892 70.9958C30.2196 70.4086 30.6181 69.7146 30.8579 68.9605C31.0193 65.7156 31.0152 62.4646 30.8456 59.2202C30.7575 58.6773 30.5891 58.1504 30.3461 57.657C30.0377 56.7906 29.4149 56.4391 28.1477 56.4637ZM3.93116 59.174C4.17166 59.4669 4.59716 59.7506 4.60949 60.0527C4.68658 61.4279 4.64958 62.8092 4.64958 64.1906C4.64958 65.5195 4.68041 66.8546 4.61875 68.1835C4.60641 68.4548 4.23333 68.7169 4.02674 68.9851C3.75849 68.7169 3.25591 68.4517 3.25283 68.1835C3.19588 65.4756 3.19382 62.7668 3.24666 60.0589C3.24974 59.7629 3.69374 59.4669 3.93116 59.174Z" fill="white"/>
</svg>
