<svg width="74" height="87" viewBox="0 0 74 87" fill="none" xmlns="http://www.w3.org/2000/svg">
<path d="M69.7334 30.7001L60.8 84.0335C60.66 84.7987 60.2568 85.4908 59.6602 85.99C59.0636 86.4891 58.3113 86.764 57.5334 86.7668H16.4667C15.6888 86.764 14.9364 86.4891 14.3398 85.99C13.7432 85.4908 13.34 84.7987 13.2 84.0335L4.26668 30.7001C4.18973 30.2254 4.21639 29.7397 4.34483 29.2763C4.47327 28.813 4.70044 28.3828 5.01077 28.0155C5.3211 27.6482 5.70722 27.3524 6.14265 27.1483C6.57808 26.9443 7.0525 26.8369 7.53335 26.8334H66.4C66.8865 26.8272 67.3685 26.9274 67.812 27.1273C68.2556 27.3271 68.6501 27.6215 68.9677 27.99C69.2854 28.3585 69.5185 28.7921 69.6508 29.2602C69.7831 29.7284 69.8113 30.2199 69.7334 30.7001ZM73.6667 16.8334C73.6667 17.7175 73.3155 18.5653 72.6904 19.1905C72.0653 19.8156 71.2174 20.1668 70.3334 20.1668H3.66668C2.78262 20.1668 1.93478 19.8156 1.30966 19.1905C0.684534 18.5653 0.333344 17.7175 0.333344 16.8334C0.333344 15.9494 0.684534 15.1015 1.30966 14.4764C1.93478 13.8513 2.78262 13.5001 3.66668 13.5001H20.3334V3.50008C20.3334 2.61603 20.6845 1.76818 21.3097 1.14306C21.9348 0.517938 22.7826 0.166748 23.6667 0.166748H50.3334C51.2174 0.166748 52.0653 0.517938 52.6904 1.14306C53.3155 1.76818 53.6667 2.61603 53.6667 3.50008V13.5001H70.3334C71.2174 13.5001 72.0653 13.8513 72.6904 14.4764C73.3155 15.1015 73.6667 15.9494 73.6667 16.8334ZM47 13.5001V6.83342H27V13.5001H47Z" fill="white"/>
</svg>
