<svg width="20" height="20" viewBox="0 0 20 20" fill="none" xmlns="http://www.w3.org/2000/svg">
<path d="M10.1 16.2125L10 16.3125L9.89 16.2125C5.14 11.9025 2 9.05248 2 6.16248C2 4.16248 3.5 2.66248 5.5 2.66248C7.04 2.66248 8.54 3.66248 9.07 5.02248H10.93C11.46 3.66248 12.96 2.66248 14.5 2.66248C16.5 2.66248 18 4.16248 18 6.16248C18 9.05248 14.86 11.9025 10.1 16.2125ZM14.5 0.662476C12.76 0.662476 11.09 1.47248 10 2.74248C8.91 1.47248 7.24 0.662476 5.5 0.662476C2.42 0.662476 0 3.07248 0 6.16248C0 9.93248 3.4 13.0225 8.55 17.6925L10 19.0125L11.45 17.6925C16.6 13.0225 20 9.93248 20 6.16248C20 3.07248 17.58 0.662476 14.5 0.662476Z" fill="black"/>
</svg>
